<?xml version="1.0" encoding="UTF-8"?>
<!DOCTYPE svg PUBLIC "-//W3C//DTD SVG 1.1//EN" "http://www.w3.org/Graphics/SVG/1.1/DTD/svg11.dtd">
<svg xmlns="http://www.w3.org/2000/svg" version="1.1" viewBox="0 0 41 41" stroke="none">
	<rect width="100%" height="100%" fill="#ffffff"/>
	<path d="M4,4h7v1h-7z M15,4h1v3h-1z M18,4h2v1h-2z M23,4h1v1h-1z M26,4h2v2h-2z M30,4h7v1h-7z M4,5h1v6h-1z M10,5h1v6h-1z M16,5h1v1h-1z M19,5h1v1h-1z M21,5h2v1h-2z M24,5h2v1h-2z M28,5h1v1h-1z M30,5h1v6h-1z M36,5h1v6h-1z M6,6h3v3h-3z M13,6h1v1h-1z M18,6h1v1h-1z M21,6h1v1h-1z M24,6h1v1h-1z M27,6h1v3h-1z M32,6h3v3h-3z M14,7h1v2h-1z M17,7h1v3h-1z M19,7h1v1h-1z M22,7h2v1h-2z M26,7h1v5h-1z M16,8h1v1h-1z M20,8h1v1h-1z M22,8h1v1h-1z M12,9h1v2h-1z M15,9h1v1h-1z M21,9h1v1h-1z M23,9h3v1h-3z M5,10h5v1h-5z M14,10h1v1h-1z M16,10h1v1h-1z M18,10h1v1h-1z M20,10h1v1h-1z M22,10h1v1h-1z M24,10h1v1h-1z M28,10h1v11h-1z M31,10h5v1h-5z M13,11h1v3h-1z M21,11h1v1h-1z M25,11h1v3h-1z M27,11h1v2h-1z M4,12h1v1h-1z M7,12h1v1h-1z M9,12h2v1h-2z M12,12h1v1h-1z M16,12h4v1h-4z M23,12h1v1h-1z M29,12h1v3h-1z M31,12h1v3h-1z M5,13h2v1h-2z M11,13h1v2h-1z M14,13h1v4h-1z M20,13h1v1h-1z M24,13h1v2h-1z M26,13h1v2h-1z M30,13h1v2h-1z M36,13h1v5h-1z M5,14h1v1h-1z M9,14h2v1h-2z M12,14h1v3h-1z M23,14h1v1h-1z M32,14h1v2h-1z M34,14h2v1h-2z M6,15h1v1h-1z M13,15h1v2h-1z M18,15h3v1h-3z M22,15h1v1h-1z M25,15h1v3h-1z M27,15h1v2h-1z M33,15h1v2h-1z M35,15h1v6h-1z M5,16h1v2h-1z M8,16h4v1h-4z M15,16h1v2h-1z M20,16h2v1h-2z M24,16h1v2h-1z M30,16h2v4h-2z M4,17h1v2h-1z M6,17h1v1h-1z M9,17h1v2h-1z M16,17h2v1h-2z M19,17h2v1h-2z M23,17h1v1h-1z M26,17h1v1h-1z M29,17h1v2h-1z M32,17h1v1h-1z M34,17h1v2h-1z M7,18h1v1h-1z M10,18h3v1h-3z M14,18h1v2h-1z M17,18h1v1h-1z M21,18h2v2h-2z M27,18h1v1h-1z M5,19h2v2h-2z M8,19h1v1h-1z M12,19h2v2h-2z M15,19h1v3h-1z M16,19h1v1h-1z M18,19h1v1h-1z M23,19h4v1h-4z M10,20h1v1h-1z M17,20h1v2h-1z M20,20h2v1h-2z M23,20h1v1h-1z M25,20h1v2h-1z M30,20h1v1h-1z M32,20h1v1h-1z M34,20h1v1h-1z M4,21h1v1h-1z M6,21h4v1h-4z M11,21h1v1h-1z M14,21h1v2h-1z M16,21h1v2h-1z M18,21h1v1h-1z M20,21h1v1h-1z M27,21h1v1h-1z M29,21h1v1h-1z M31,21h1v1h-1z M33,21h1v1h-1z M5,22h1v1h-1z M7,22h1v1h-1z M9,22h2v1h-2z M12,22h2v2h-2z M22,22h1v2h-1z M26,22h1v1h-1z M34,22h3v1h-3z M11,23h1v1h-1z M18,23h1v3h-1z M20,23h2v1h-2z M23,23h3v2h-3z M27,23h2v2h-2z M29,23h1v1h-1z M31,23h1v4h-1z M36,23h1v4h-1z M6,24h2v1h-2z M9,24h2v1h-2z M13,24h1v1h-1z M16,24h2v1h-2z M26,24h1v3h-1z M35,24h1v2h-1z M5,25h1v3h-1z M6,25h1v1h-1z M8,25h1v4h-1z M11,25h1v1h-1z M15,25h1v3h-1z M16,25h1v1h-1z M20,25h2v2h-2z M22,25h1v1h-1z M24,25h1v1h-1z M30,25h1v1h-1z M34,25h1v1h-1z M4,26h1v1h-1z M7,26h1v1h-1z M10,26h1v1h-1z M12,26h3v1h-3z M17,26h1v1h-1z M23,26h1v2h-1z M25,26h1v3h-1z M11,27h1v2h-1z M13,27h1v2h-1z M24,27h1v2h-1z M29,27h1v2h-1z M33,27h1v1h-1z M4,28h1v1h-1z M7,28h1v1h-1z M9,28h2v1h-2z M12,28h1v2h-1z M14,28h1v1h-1z M16,28h3v1h-3z M21,28h1v6h-1z M28,28h1v6h-1z M30,28h3v1h-3z M34,28h1v1h-1z M18,29h1v2h-1z M22,29h2v1h-2z M26,29h1v1h-1z M32,29h1v6h-1z M33,29h1v2h-1z M36,29h1v1h-1z M4,30h7v1h-7z M17,30h1v1h-1z M24,30h1v3h-1z M30,30h1v1h-1z M34,30h2v1h-2z M4,31h1v6h-1z M10,31h1v6h-1z M12,31h2v1h-2z M15,31h2v2h-2z M20,31h1v1h-1z M25,31h2v2h-2z M6,32h3v3h-3z M17,32h1v2h-1z M19,32h1v1h-1z M23,32h1v1h-1z M29,32h3v1h-3z M33,32h1v3h-1z M36,32h1v1h-1z M12,33h2v1h-2z M20,33h1v1h-1z M27,33h1v2h-1z M30,33h1v1h-1z M34,33h1v1h-1z M13,34h2v2h-2z M15,34h1v1h-1z M18,34h1v2h-1z M22,34h1v3h-1z M25,34h1v3h-1z M36,34h1v1h-1z M16,35h2v1h-2z M19,35h3v1h-3z M24,35h1v1h-1z M26,35h1v1h-1z M28,35h1v2h-1z M30,35h1v1h-1z M5,36h5v1h-5z M12,36h1v1h-1z M15,36h1v1h-1z M19,36h1v1h-1z M23,36h1v1h-1z M27,36h1v1h-1z M32,36h1v1h-1z M34,36h2v1h-2z" fill="#000000"/>
</svg>

