<?xml version="1.0" encoding="UTF-8"?>
<!DOCTYPE svg PUBLIC "-//W3C//DTD SVG 1.1//EN" "http://www.w3.org/Graphics/SVG/1.1/DTD/svg11.dtd">
<svg xmlns="http://www.w3.org/2000/svg" version="1.1" viewBox="0 0 33 33" stroke="none">
	<rect width="100%" height="100%" fill="#ffffff"/>
	<path d="M4,4h7v1h-7z M13,4h3v1h-3z M17,4h4v1h-4z M22,4h7v1h-7z M4,5h1v6h-1z M10,5h1v6h-1z M14,5h2v1h-2z M17,5h1v1h-1z M20,5h1v1h-1z M22,5h1v6h-1z M28,5h1v6h-1z M6,6h3v3h-3z M12,6h3v1h-3z M19,6h1v3h-1z M24,6h3v3h-3z M15,7h2v1h-2z M20,7h1v2h-1z M12,8h1v3h-1z M14,8h1v1h-1z M16,8h1v3h-1z M18,8h1v1h-1z M13,9h1v1h-1z M15,9h1v1h-1z M5,10h5v1h-5z M14,10h1v1h-1z M18,10h1v1h-1z M20,10h1v1h-1z M23,10h5v1h-5z M13,11h1v1h-1z M15,11h1v1h-1z M17,11h1v3h-1z M19,11h1v1h-1z M5,12h1v1h-1z M8,12h1v1h-1z M10,12h1v1h-1z M12,12h1v2h-1z M14,12h1v2h-1z M16,12h1v1h-1z M20,12h2v1h-2z M23,12h2v1h-2z M26,12h1v1h-1z M6,13h1v1h-1z M9,13h1v2h-1z M13,13h1v1h-1z M18,13h3v1h-3z M24,13h1v2h-1z M8,14h1v1h-1z M10,14h2v1h-2z M15,14h1v1h-1z M19,14h1v7h-1z M23,14h1v1h-1z M25,14h1v1h-1z M6,15h2v1h-2z M11,15h1v3h-1z M14,15h1v2h-1z M18,15h1v2h-1z M20,15h1v1h-1z M26,15h1v2h-1z M4,16h2v2h-2z M7,16h1v1h-1z M9,16h2v1h-2z M12,16h2v1h-2z M15,16h1v1h-1z M17,16h1v1h-1z M22,16h2v1h-2z M6,17h1v4h-1z M9,17h1v1h-1z M13,17h1v2h-1z M20,17h1v1h-1z M24,17h2v1h-2z M27,17h1v1h-1z M7,18h1v3h-1z M10,18h1v1h-1z M12,18h1v1h-1z M16,18h3v1h-3z M21,18h1v3h-1z M23,18h1v1h-1z M26,18h1v3h-1z M11,19h1v2h-1z M14,19h2v1h-2z M17,19h1v1h-1z M28,19h1v2h-1z M4,20h2v1h-2z M8,20h3v1h-3z M13,20h1v1h-1z M16,20h1v1h-1z M20,20h1v5h-1z M22,20h4v1h-4z M12,21h1v1h-1z M14,21h2v2h-2z M17,21h1v2h-1z M24,21h1v4h-1z M4,22h7v1h-7z M22,22h1v1h-1z M25,22h1v1h-1z M4,23h1v6h-1z M10,23h1v6h-1z M13,23h1v6h-1z M14,23h1v2h-1z M16,23h1v1h-1z M26,23h3v1h-3z M6,24h3v3h-3z M12,24h1v1h-1z M15,24h1v3h-1z M17,24h1v4h-1z M21,24h3v3h-3z M25,24h2v1h-2z M28,24h1v2h-1z M18,25h2v1h-2z M27,25h1v4h-1z M16,26h1v1h-1z M19,26h1v3h-1z M12,27h1v1h-1z M14,27h1v1h-1z M22,27h1v2h-1z M26,27h1v2h-1z M5,28h5v1h-5z M15,28h1v1h-1z M18,28h1v1h-1z M23,28h3v1h-3z M28,28h1v1h-1z" fill="#000000"/>
</svg>

