<?xml version="1.0" encoding="UTF-8"?>
<!DOCTYPE svg PUBLIC "-//W3C//DTD SVG 1.1//EN" "http://www.w3.org/Graphics/SVG/1.1/DTD/svg11.dtd">
<svg xmlns="http://www.w3.org/2000/svg" version="1.1" viewBox="0 0 41 41" stroke="none">
	<rect width="100%" height="100%" fill="#ffffff"/>
	<path d="M4,4h7v1h-7z M12,4h2v1h-2z M16,4h1v3h-1z M20,4h1v2h-1z M23,4h3v1h-3z M27,4h1v2h-1z M30,4h7v1h-7z M4,5h1v6h-1z M10,5h1v6h-1z M12,5h1v1h-1z M14,5h1v3h-1z M17,5h2v3h-2z M21,5h1v1h-1z M28,5h1v4h-1z M30,5h1v6h-1z M36,5h1v6h-1z M6,6h3v3h-3z M22,6h3v1h-3z M32,6h3v3h-3z M12,7h2v1h-2z M15,7h1v1h-1z M19,7h1v2h-1z M21,7h1v3h-1z M26,7h1v2h-1z M16,8h1v1h-1z M18,8h1v5h-1z M20,8h1v4h-1z M23,8h1v2h-1z M13,9h1v1h-1z M15,9h1v1h-1z M17,9h1v1h-1z M24,9h1v3h-1z M5,10h5v1h-5z M12,10h1v2h-1z M14,10h1v1h-1z M16,10h1v3h-1z M22,10h1v1h-1z M26,10h1v1h-1z M28,10h1v2h-1z M31,10h5v1h-5z M13,11h1v5h-1z M15,11h1v2h-1z M19,11h1v2h-1z M21,11h1v4h-1z M27,11h1v1h-1z M4,12h1v1h-1z M6,12h2v1h-2z M9,12h3v1h-3z M22,12h1v3h-1z M25,12h1v2h-1z M30,12h1v3h-1z M33,12h1v5h-1z M35,12h2v2h-2z M5,13h1v1h-1z M7,13h1v2h-1z M9,13h1v1h-1z M11,13h2v2h-2z M20,13h1v1h-1z M23,13h2v1h-2z M26,13h2v4h-2z M31,13h1v3h-1z M34,13h1v1h-1z M6,14h1v4h-1z M10,14h1v1h-1z M24,14h1v2h-1z M32,14h1v1h-1z M36,14h1v1h-1z M4,15h2v1h-2z M9,15h1v2h-1z M14,15h3v2h-3z M17,15h2v1h-2z M28,15h1v3h-1z M35,15h1v3h-1z M5,16h1v2h-1z M10,16h1v1h-1z M12,16h1v2h-1z M19,16h1v2h-1z M21,16h2v1h-2z M32,16h1v1h-1z M8,17h1v2h-1z M14,17h1v1h-1z M16,17h3v1h-3z M20,17h1v1h-1z M23,17h1v3h-1z M29,17h1v1h-1z M34,17h1v1h-1z M7,18h1v2h-1z M9,18h2v1h-2z M13,18h1v1h-1z M18,18h1v1h-1z M24,18h1v1h-1z M30,18h1v4h-1z M31,18h1v1h-1z M33,18h1v4h-1z M4,19h1v1h-1z M11,19h1v1h-1z M14,19h1v3h-1z M15,19h1v1h-1z M17,19h1v2h-1z M19,19h2v1h-2z M25,19h3v1h-3z M29,19h1v10h-1z M34,19h1v1h-1z M5,20h2v1h-2z M9,20h2v1h-2z M13,20h1v1h-1z M16,20h1v2h-1z M18,20h1v1h-1z M20,20h1v1h-1z M22,20h1v1h-1z M25,20h1v1h-1z M27,20h1v2h-1z M32,20h1v4h-1z M4,21h1v2h-1z M6,21h3v1h-3z M19,21h1v3h-1z M24,21h1v2h-1z M26,21h1v1h-1z M36,21h1v1h-1z M9,22h3v1h-3z M13,22h1v1h-1z M17,22h1v2h-1z M20,22h1v1h-1z M22,22h1v1h-1z M25,22h1v1h-1z M31,22h1v1h-1z M34,22h2v1h-2z M7,23h1v2h-1z M11,23h1v1h-1z M14,23h1v3h-1z M16,23h1v1h-1z M18,23h1v1h-1z M21,23h1v2h-1z M23,23h1v1h-1z M26,23h1v6h-1z M27,23h2v1h-2z M4,24h2v2h-2z M6,24h1v1h-1z M9,24h2v1h-2z M12,24h2v1h-2z M20,24h1v6h-1z M22,24h1v1h-1z M25,24h1v1h-1z M31,24h1v5h-1z M33,24h1v4h-1z M34,24h1v1h-1z M36,24h1v5h-1z M9,25h1v1h-1z M11,25h2v1h-2z M17,25h1v4h-1z M18,25h1v1h-1z M23,25h2v1h-2z M27,25h2v2h-2z M30,25h1v1h-1z M8,26h1v1h-1z M10,26h2v1h-2z M13,26h1v1h-1z M15,26h1v1h-1z M22,26h1v1h-1z M25,26h1v1h-1z M34,26h2v1h-2z M5,27h1v1h-1z M7,27h1v1h-1z M16,27h1v1h-1z M18,27h1v3h-1z M24,27h1v1h-1z M30,27h1v2h-1z M32,27h1v6h-1z M35,27h1v2h-1z M4,28h1v1h-1z M6,28h1v1h-1z M9,28h2v1h-2z M13,28h1v3h-1z M21,28h1v3h-1z M23,28h1v4h-1z M28,28h1v6h-1z M34,28h1v1h-1z M12,29h1v3h-1z M14,29h2v1h-2z M19,29h1v1h-1z M22,29h1v1h-1z M24,29h1v7h-1z M25,29h1v1h-1z M33,29h1v1h-1z M4,30h7v1h-7z M15,30h1v1h-1z M27,30h1v5h-1z M30,30h1v1h-1z M4,31h1v6h-1z M10,31h1v6h-1z M16,31h3v1h-3z M20,31h1v1h-1z M25,31h2v1h-2z M33,31h3v1h-3z M6,32h3v3h-3z M13,32h1v1h-1z M15,32h1v1h-1z M17,32h3v1h-3z M22,32h1v1h-1z M26,32h1v1h-1z M29,32h3v1h-3z M34,32h3v1h-3z M12,33h1v2h-1z M14,33h1v1h-1z M19,33h1v3h-1z M21,33h1v1h-1z M25,33h1v1h-1z M31,33h1v3h-1z M33,33h2v1h-2z M36,33h1v1h-1z M13,34h1v3h-1z M16,34h2v1h-2z M20,34h1v1h-1z M22,34h1v2h-1z M26,34h1v1h-1z M30,34h1v2h-1z M33,34h1v1h-1z M14,35h3v1h-3z M21,35h1v2h-1z M23,35h1v2h-1z M28,35h2v1h-2z M32,35h1v2h-1z M36,35h1v1h-1z M5,36h5v1h-5z M12,36h1v1h-1z M15,36h1v1h-1z M17,36h1v1h-1z M25,36h1v1h-1z M29,36h1v1h-1z M33,36h1v1h-1z" fill="#000000"/>
</svg>

