<?xml version="1.0" encoding="UTF-8"?>
<!DOCTYPE svg PUBLIC "-//W3C//DTD SVG 1.1//EN" "http://www.w3.org/Graphics/SVG/1.1/DTD/svg11.dtd">
<svg xmlns="http://www.w3.org/2000/svg" version="1.1" viewBox="0 0 41 41" stroke="none">
	<rect width="100%" height="100%" fill="#ffffff"/>
	<path d="M4,4h7v1h-7z M13,4h3v1h-3z M20,4h1v3h-1z M23,4h3v1h-3z M27,4h1v1h-1z M30,4h7v1h-7z M4,5h1v6h-1z M10,5h1v6h-1z M19,5h1v4h-1z M24,5h2v2h-2z M30,5h1v6h-1z M36,5h1v6h-1z M6,6h3v3h-3z M12,6h1v6h-1z M13,6h2v1h-2z M18,6h1v1h-1z M26,6h1v5h-1z M32,6h3v3h-3z M15,7h1v2h-1z M21,7h1v1h-1z M28,7h1v1h-1z M13,8h1v1h-1z M18,8h1v3h-1z M20,8h1v1h-1z M22,8h4v1h-4z M27,8h1v1h-1z M21,9h2v1h-2z M25,9h1v1h-1z M28,9h1v2h-1z M5,10h5v1h-5z M14,10h1v4h-1z M16,10h1v4h-1z M20,10h1v4h-1z M22,10h1v2h-1z M24,10h1v1h-1z M31,10h5v1h-5z M13,11h1v1h-1z M25,11h1v1h-1z M4,12h1v1h-1z M6,12h5v1h-5z M15,12h1v2h-1z M17,12h1v4h-1z M18,12h1v1h-1z M21,12h1v2h-1z M23,12h1v2h-1z M26,12h1v3h-1z M28,12h1v1h-1z M30,12h5v1h-5z M6,13h1v2h-1z M9,13h1v4h-1z M22,13h1v1h-1z M24,13h2v1h-2z M27,13h1v1h-1z M30,13h2v1h-2z M33,13h4v1h-4z M7,14h1v1h-1z M10,14h1v1h-1z M18,14h2v1h-2z M25,14h1v2h-1z M28,14h1v1h-1z M30,14h1v1h-1z M32,14h1v3h-1z M34,14h1v2h-1z M4,15h2v1h-2z M11,15h1v2h-1z M13,15h2v2h-2z M16,15h1v1h-1z M19,15h1v4h-1z M20,15h1v1h-1z M23,15h2v1h-2z M27,15h1v3h-1z M29,15h1v1h-1z M33,15h1v5h-1z M6,16h2v1h-2z M10,16h1v1h-1z M12,16h1v1h-1z M15,16h1v3h-1z M18,16h1v1h-1z M21,16h1v2h-1z M26,16h1v1h-1z M28,16h1v1h-1z M35,16h1v3h-1z M8,17h1v3h-1z M16,17h2v1h-2z M22,17h4v1h-4z M29,17h2v3h-2z M31,17h1v1h-1z M36,17h1v1h-1z M4,18h1v2h-1z M10,18h2v1h-2z M13,18h1v2h-1z M17,18h1v2h-1z M20,18h1v1h-1z M22,18h1v1h-1z M25,18h2v2h-2z M28,18h1v1h-1z M32,18h1v1h-1z M34,18h1v6h-1z M6,19h1v2h-1z M9,19h1v1h-1z M14,19h1v1h-1z M18,19h1v2h-1z M24,19h1v8h-1z M27,19h1v1h-1z M31,19h1v5h-1z M7,20h1v2h-1z M10,20h2v1h-2z M15,20h1v2h-1z M19,20h3v1h-3z M28,20h2v1h-2z M32,20h1v1h-1z M36,20h1v2h-1z M4,21h2v1h-2z M9,21h1v1h-1z M12,21h1v1h-1z M14,21h1v3h-1z M17,21h1v2h-1z M20,21h1v2h-1z M22,21h2v1h-2z M25,21h1v3h-1z M27,21h2v1h-2z M30,21h1v1h-1z M33,21h1v1h-1z M35,21h1v2h-1z M5,22h1v3h-1z M6,22h1v1h-1z M8,22h1v1h-1z M10,22h1v1h-1z M16,22h1v2h-1z M18,22h2v1h-2z M22,22h1v1h-1z M29,22h1v2h-1z M32,22h1v3h-1z M11,23h3v1h-3z M15,23h1v3h-1z M18,23h1v1h-1z M23,23h1v3h-1z M26,23h1v1h-1z M30,23h1v1h-1z M33,23h1v3h-1z M36,23h1v3h-1z M4,24h1v5h-1z M6,24h1v2h-1z M10,24h1v1h-1z M19,24h3v1h-3z M28,24h1v2h-1z M35,24h1v1h-1z M8,25h1v3h-1z M12,25h1v1h-1z M16,25h3v1h-3z M20,25h1v2h-1z M26,25h2v1h-2z M29,25h2v2h-2z M31,25h1v1h-1z M10,26h1v1h-1z M14,26h1v1h-1z M18,26h2v1h-2z M21,26h1v1h-1z M26,26h1v1h-1z M35,26h1v2h-1z M7,27h1v1h-1z M12,27h2v1h-2z M15,27h1v4h-1z M17,27h1v5h-1z M18,27h1v1h-1z M22,27h1v1h-1z M25,27h1v1h-1z M27,27h2v1h-2z M30,27h1v2h-1z M33,27h2v1h-2z M36,27h1v3h-1z M6,28h1v1h-1z M9,28h2v1h-2z M16,28h1v2h-1z M19,28h3v1h-3z M26,28h1v1h-1z M28,28h1v5h-1z M29,28h1v1h-1z M31,28h2v1h-2z M34,28h1v4h-1z M12,29h1v1h-1z M14,29h1v2h-1z M18,29h1v2h-1z M20,29h1v3h-1z M23,29h1v1h-1z M27,29h1v3h-1z M32,29h1v5h-1z M4,30h7v1h-7z M13,30h1v2h-1z M19,30h1v1h-1z M24,30h3v2h-3z M30,30h1v1h-1z M35,30h1v4h-1z M4,31h1v6h-1z M10,31h1v6h-1z M12,31h1v4h-1z M22,31h2v1h-2z M33,31h1v6h-1z M6,32h3v3h-3z M15,32h2v1h-2z M21,32h1v2h-1z M26,32h1v1h-1z M29,32h3v1h-3z M13,33h1v1h-1z M15,33h1v1h-1z M20,33h1v2h-1z M22,33h3v1h-3z M27,33h1v3h-1z M29,33h1v1h-1z M36,33h1v1h-1z M19,34h1v2h-1z M22,34h1v1h-1z M24,34h1v2h-1z M26,34h1v1h-1z M30,34h2v1h-2z M13,35h1v2h-1z M16,35h3v1h-3z M25,35h1v1h-1z M29,35h1v2h-1z M32,35h1v1h-1z M34,35h1v2h-1z M5,36h5v1h-5z M12,36h1v1h-1z M14,36h1v1h-1z M20,36h4v1h-4z M26,36h1v1h-1z M28,36h1v1h-1z M30,36h2v1h-2z M35,36h1v1h-1z" fill="#000000"/>
</svg>

