<?xml version="1.0" encoding="UTF-8"?>
<!DOCTYPE svg PUBLIC "-//W3C//DTD SVG 1.1//EN" "http://www.w3.org/Graphics/SVG/1.1/DTD/svg11.dtd">
<svg xmlns="http://www.w3.org/2000/svg" version="1.1" viewBox="0 0 37 37" stroke="none">
	<rect width="100%" height="100%" fill="#ffffff"/>
	<path d="M4,4h7v1h-7z M12,4h2v2h-2z M14,4h1v1h-1z M18,4h7v1h-7z M26,4h7v1h-7z M4,5h1v6h-1z M10,5h1v6h-1z M15,5h1v1h-1z M20,5h2v1h-2z M24,5h1v1h-1z M26,5h1v6h-1z M32,5h1v6h-1z M6,6h3v3h-3z M14,6h1v3h-1z M17,6h3v1h-3z M22,6h1v1h-1z M28,6h3v3h-3z M12,7h2v1h-2z M15,7h1v2h-1z M17,7h1v1h-1z M21,7h1v3h-1z M24,7h1v1h-1z M20,8h1v7h-1z M23,8h1v2h-1z M13,9h1v1h-1z M16,9h1v2h-1z M22,9h1v2h-1z M24,9h1v2h-1z M5,10h5v1h-5z M12,10h1v2h-1z M14,10h1v2h-1z M18,10h1v2h-1z M27,10h5v1h-5z M15,11h1v1h-1z M19,11h1v3h-1z M21,11h1v4h-1z M4,12h1v1h-1z M6,12h2v1h-2z M9,12h3v1h-3z M13,12h1v2h-1z M16,12h1v2h-1z M22,12h2v1h-2z M26,12h1v2h-1z M29,12h1v1h-1z M31,12h2v1h-2z M7,13h1v2h-1z M11,13h1v2h-1z M14,13h1v1h-1z M18,13h1v3h-1z M23,13h3v1h-3z M27,13h2v3h-2z M32,13h1v1h-1z M4,14h3v1h-3z M10,14h1v1h-1z M12,14h1v5h-1z M17,14h1v3h-1z M24,14h2v2h-2z M30,14h2v1h-2z M6,15h1v2h-1z M8,15h2v3h-2z M13,15h1v7h-1z M15,15h2v1h-2z M22,15h1v4h-1z M26,15h1v1h-1z M32,15h1v1h-1z M4,16h2v1h-2z M7,16h1v1h-1z M10,16h1v1h-1z M15,16h1v1h-1z M20,16h2v1h-2z M24,16h1v1h-1z M29,16h2v1h-2z M11,17h1v1h-1z M19,17h1v1h-1z M23,17h1v4h-1z M26,17h2v2h-2z M30,17h3v2h-3z M4,18h1v2h-1z M9,18h2v1h-2z M17,18h1v1h-1z M20,18h1v3h-1z M21,18h1v1h-1z M24,18h2v3h-2z M5,19h1v1h-1z M9,19h1v1h-1z M11,19h1v2h-1z M14,19h1v4h-1z M16,19h1v1h-1z M18,19h1v3h-1z M19,19h1v1h-1z M27,19h2v1h-2z M31,19h1v3h-1z M7,20h2v1h-2z M10,20h1v1h-1z M15,20h1v1h-1z M17,20h1v2h-1z M22,20h1v5h-1z M28,20h2v1h-2z M5,21h2v1h-2z M8,21h1v3h-1z M16,21h1v2h-1z M19,21h1v4h-1z M25,21h1v1h-1z M27,21h1v2h-1z M29,21h2v1h-2z M4,22h1v1h-1z M6,22h1v2h-1z M10,22h3v1h-3z M21,22h1v3h-1z M24,22h1v1h-1z M30,22h1v4h-1z M12,23h1v1h-1z M18,23h1v1h-1z M20,23h1v4h-1z M23,23h1v2h-1z M25,23h1v2h-1z M28,23h1v7h-1z M5,24h1v1h-1z M7,24h1v1h-1z M9,24h2v1h-2z M24,24h1v5h-1z M26,24h2v1h-2z M29,24h1v4h-1z M12,25h4v1h-4z M18,25h1v1h-1z M31,25h2v1h-2z M4,26h7v1h-7z M12,26h1v2h-1z M14,26h1v2h-1z M16,26h1v1h-1z M21,26h3v1h-3z M26,26h1v1h-1z M31,26h1v1h-1z M4,27h1v6h-1z M10,27h1v6h-1z M15,27h1v5h-1z M17,27h1v1h-1z M6,28h3v3h-3z M13,28h1v2h-1z M19,28h1v2h-1z M21,28h1v2h-1z M25,28h3v1h-3z M30,28h3v1h-3z M12,29h1v2h-1z M14,29h1v4h-1z M16,29h3v1h-3z M20,29h1v3h-1z M22,29h1v2h-1z M27,29h1v2h-1z M29,29h1v1h-1z M32,29h1v2h-1z M24,30h1v3h-1z M30,30h1v1h-1z M13,31h1v2h-1z M16,31h2v2h-2z M19,31h1v1h-1z M26,31h1v2h-1z M29,31h1v1h-1z M31,31h1v2h-1z M5,32h5v1h-5z M12,32h1v1h-1z M18,32h1v1h-1z M22,32h2v1h-2z M28,32h1v1h-1z" fill="#000000"/>
</svg>

