<?xml version="1.0" encoding="UTF-8"?>
<!DOCTYPE svg PUBLIC "-//W3C//DTD SVG 1.1//EN" "http://www.w3.org/Graphics/SVG/1.1/DTD/svg11.dtd">
<svg xmlns="http://www.w3.org/2000/svg" version="1.1" viewBox="0 0 37 37" stroke="none">
	<rect width="100%" height="100%" fill="#ffffff"/>
	<path d="M4,4h7v1h-7z M15,4h2v2h-2z M18,4h7v1h-7z M26,4h7v1h-7z M4,5h1v6h-1z M10,5h1v6h-1z M18,5h3v1h-3z M22,5h1v1h-1z M26,5h1v6h-1z M32,5h1v6h-1z M6,6h3v3h-3z M12,6h1v6h-1z M13,6h3v1h-3z M18,6h1v1h-1z M20,6h1v1h-1z M23,6h1v1h-1z M28,6h3v3h-3z M14,7h1v1h-1z M17,7h1v1h-1z M21,7h1v1h-1z M24,7h1v5h-1z M18,8h3v1h-3z M22,8h2v1h-2z M15,9h3v1h-3z M19,9h1v1h-1z M21,9h1v1h-1z M5,10h5v1h-5z M14,10h1v1h-1z M16,10h1v5h-1z M18,10h1v2h-1z M20,10h1v2h-1z M22,10h1v2h-1z M27,10h5v1h-5z M15,11h1v3h-1z M4,12h1v3h-1z M6,12h3v3h-3z M9,12h2v1h-2z M17,12h1v1h-1z M21,12h1v2h-1z M26,12h3v2h-3z M29,12h2v1h-2z M12,13h2v1h-2z M18,13h3v1h-3z M23,13h3v1h-3z M32,13h1v1h-1z M9,14h1v3h-1z M10,14h1v1h-1z M13,14h1v4h-1z M17,14h1v1h-1z M19,14h2v2h-2z M22,14h1v1h-1z M6,15h1v1h-1z M8,15h1v2h-1z M15,15h1v2h-1z M18,15h1v1h-1z M23,15h2v1h-2z M27,15h1v1h-1z M29,15h1v2h-1z M31,15h1v1h-1z M10,16h2v1h-2z M16,16h2v1h-2z M20,16h3v1h-3z M24,16h1v4h-1z M30,16h1v1h-1z M4,17h3v1h-3z M11,17h1v2h-1z M16,17h1v1h-1z M18,17h1v3h-1z M21,17h1v2h-1z M23,17h1v1h-1z M25,17h2v1h-2z M28,17h1v3h-1z M32,17h1v1h-1z M6,18h2v2h-2z M9,18h2v1h-2z M12,18h1v8h-1z M14,18h1v1h-1z M19,18h1v3h-1z M27,18h1v7h-1z M29,18h2v1h-2z M5,19h1v3h-1z M8,19h1v3h-1z M16,19h1v3h-1z M20,19h1v3h-1z M23,19h1v3h-1z M25,19h1v1h-1z M31,19h1v1h-1z M4,20h1v5h-1z M10,20h2v1h-2z M14,20h1v4h-1z M17,20h1v1h-1z M21,20h1v1h-1z M29,20h2v1h-2z M6,21h1v1h-1z M9,21h1v1h-1z M18,21h1v2h-1z M26,21h1v1h-1z M28,21h1v1h-1z M30,21h1v2h-1z M32,21h1v1h-1z M10,22h2v1h-2z M13,22h1v1h-1z M15,22h1v3h-1z M17,22h1v1h-1z M19,22h1v1h-1z M21,22h2v1h-2z M24,22h1v10h-1z M7,23h2v2h-2z M20,23h1v1h-1z M23,23h1v1h-1z M31,23h1v3h-1z M6,24h1v1h-1z M9,24h2v1h-2z M17,24h1v1h-1z M21,24h1v1h-1z M25,24h2v1h-2z M28,24h1v5h-1z M30,24h1v3h-1z M32,24h1v2h-1z M13,25h1v1h-1z M18,25h1v3h-1z M20,25h1v3h-1z M29,25h1v2h-1z M4,26h7v1h-7z M14,26h3v2h-3z M19,26h1v3h-1z M23,26h1v2h-1z M26,26h1v1h-1z M4,27h1v6h-1z M10,27h1v6h-1z M12,27h1v4h-1z M22,27h1v1h-1z M31,27h2v3h-2z M6,28h3v3h-3z M14,28h2v1h-2z M21,28h1v1h-1z M25,28h3v1h-3z M30,28h1v3h-1z M16,29h2v1h-2z M20,29h1v1h-1z M25,29h1v2h-1z M29,29h1v3h-1z M13,30h1v1h-1z M15,30h2v1h-2z M18,30h2v1h-2z M23,30h1v1h-1z M26,30h3v1h-3z M31,30h1v2h-1z M14,31h1v1h-1z M17,31h1v1h-1z M19,31h2v1h-2z M26,31h1v2h-1z M5,32h5v1h-5z M12,32h1v1h-1z M18,32h2v1h-2z M21,32h1v1h-1z M23,32h1v1h-1z M25,32h1v1h-1z M27,32h1v1h-1z M30,32h1v1h-1z" fill="#000000"/>
</svg>

