<?xml version="1.0" encoding="UTF-8"?>
<!DOCTYPE svg PUBLIC "-//W3C//DTD SVG 1.1//EN" "http://www.w3.org/Graphics/SVG/1.1/DTD/svg11.dtd">
<svg xmlns="http://www.w3.org/2000/svg" version="1.1" viewBox="0 0 29 29" stroke="none">
	<rect width="100%" height="100%" fill="#ffffff"/>
	<path d="M4,4h7v1h-7z M12,4h4v1h-4z M18,4h7v1h-7z M4,5h1v6h-1z M10,5h1v6h-1z M12,5h2v1h-2z M15,5h2v2h-2z M18,5h1v6h-1z M24,5h1v6h-1z M6,6h3v3h-3z M12,6h1v1h-1z M20,6h3v3h-3z M13,7h3v1h-3z M14,8h1v4h-1z M12,9h1v4h-1z M5,10h5v1h-5z M16,10h1v1h-1z M19,10h5v1h-5z M6,12h3v1h-3z M10,12h1v1h-1z M13,12h1v1h-1z M16,12h4v1h-4z M22,12h3v1h-3z M4,13h2v1h-2z M7,13h1v3h-1z M11,13h1v3h-1z M14,13h2v2h-2z M16,13h1v1h-1z M18,13h2v1h-2z M23,13h2v1h-2z M5,14h1v1h-1z M9,14h2v1h-2z M12,14h1v1h-1z M17,14h1v1h-1z M20,14h1v3h-1z M8,15h1v1h-1z M13,15h1v3h-1z M14,15h1v1h-1z M19,15h1v1h-1z M24,15h1v1h-1z M5,16h2v1h-2z M10,16h1v1h-1z M15,16h1v1h-1z M17,16h1v2h-1z M22,16h1v1h-1z M12,17h1v1h-1z M16,17h1v1h-1z M18,17h2v1h-2z M21,17h1v1h-1z M4,18h7v1h-7z M15,18h1v2h-1z M19,18h1v7h-1z M23,18h1v1h-1z M4,19h1v6h-1z M10,19h1v6h-1z M13,19h2v1h-2z M16,19h3v1h-3z M22,19h1v1h-1z M6,20h3v3h-3z M12,20h1v3h-1z M14,20h1v2h-1z M18,20h1v2h-1z M20,20h2v1h-2z M23,20h1v1h-1z M15,21h1v2h-1z M13,22h1v2h-1z M17,22h1v2h-1z M21,22h2v2h-2z M14,23h1v2h-1z M24,23h1v1h-1z M5,24h5v1h-5z M22,24h1v1h-1z" fill="#000000"/>
</svg>

