<?xml version="1.0" encoding="UTF-8"?>
<!DOCTYPE svg PUBLIC "-//W3C//DTD SVG 1.1//EN" "http://www.w3.org/Graphics/SVG/1.1/DTD/svg11.dtd">
<svg xmlns="http://www.w3.org/2000/svg" version="1.1" viewBox="0 0 29 29" stroke="none">
	<rect width="100%" height="100%" fill="#ffffff"/>
	<path d="M4,4h7v1h-7z M12,4h1v1h-1z M15,4h1v1h-1z M18,4h7v1h-7z M4,5h1v6h-1z M10,5h1v6h-1z M14,5h1v2h-1z M18,5h1v6h-1z M24,5h1v6h-1z M6,6h3v3h-3z M13,6h1v2h-1z M15,6h1v1h-1z M20,6h3v3h-3z M12,7h1v1h-1z M16,7h1v10h-1z M14,8h1v1h-1z M15,9h1v1h-1z M5,10h5v1h-5z M12,10h1v1h-1z M14,10h1v1h-1z M19,10h5v1h-5z M13,11h1v1h-1z M6,12h1v2h-1z M8,12h3v1h-3z M12,12h1v6h-1z M14,12h1v3h-1z M17,12h1v2h-1z M21,12h1v2h-1z M24,12h1v5h-1z M5,13h1v1h-1z M9,13h1v3h-1z M11,13h1v1h-1z M19,13h1v5h-1z M22,13h1v1h-1z M4,14h1v2h-1z M8,14h1v2h-1z M10,14h1v1h-1z M13,14h1v2h-1z M6,15h1v1h-1z M15,15h1v3h-1z M17,15h2v1h-2z M20,15h4v1h-4z M7,16h1v1h-1z M10,16h1v1h-1z M21,16h2v1h-2z M17,17h1v1h-1z M21,17h1v1h-1z M23,17h1v5h-1z M4,18h7v1h-7z M16,18h1v1h-1z M20,18h1v1h-1z M24,18h1v1h-1z M4,19h1v6h-1z M10,19h1v6h-1z M12,19h3v1h-3z M17,19h2v2h-2z M19,19h1v1h-1z M21,19h1v1h-1z M6,20h3v3h-3z M12,20h1v1h-1z M15,20h2v1h-2z M22,20h1v3h-1z M24,20h1v1h-1z M13,21h2v2h-2z M16,21h1v1h-1z M19,21h2v1h-2z M12,22h1v1h-1z M17,22h1v1h-1z M21,22h1v2h-1z M24,22h1v3h-1z M13,23h1v1h-1z M15,23h1v2h-1z M18,23h1v1h-1z M23,23h1v1h-1z M5,24h5v1h-5z M17,24h1v1h-1z M19,24h2v1h-2z M22,24h1v1h-1z" fill="#000000"/>
</svg>

