<?xml version="1.0" encoding="UTF-8"?>
<!DOCTYPE svg PUBLIC "-//W3C//DTD SVG 1.1//EN" "http://www.w3.org/Graphics/SVG/1.1/DTD/svg11.dtd">
<svg xmlns="http://www.w3.org/2000/svg" version="1.1" viewBox="0 0 37 37" stroke="none">
	<rect width="100%" height="100%" fill="#ffffff"/>
	<path d="M4,4h7v1h-7z M13,4h2v1h-2z M21,4h3v1h-3z M26,4h7v1h-7z M4,5h1v6h-1z M10,5h1v6h-1z M16,5h1v2h-1z M18,5h2v2h-2z M21,5h1v2h-1z M26,5h1v6h-1z M32,5h1v6h-1z M6,6h3v3h-3z M23,6h1v2h-1z M28,6h3v3h-3z M13,7h1v2h-1z M22,7h1v4h-1z M24,7h1v1h-1z M14,8h2v1h-2z M17,8h1v1h-1z M20,8h1v1h-1z M12,9h1v2h-1z M15,9h1v1h-1z M19,9h1v1h-1z M21,9h1v1h-1z M23,9h1v1h-1z M5,10h5v1h-5z M14,10h1v1h-1z M16,10h1v2h-1z M18,10h1v2h-1z M20,10h1v1h-1z M24,10h1v2h-1z M27,10h5v1h-5z M15,11h1v1h-1z M21,11h1v1h-1z M4,12h1v3h-1z M7,12h1v1h-1z M9,12h2v1h-2z M12,12h2v2h-2z M14,12h1v1h-1z M17,12h1v2h-1z M19,12h2v2h-2z M25,12h1v3h-1z M27,12h1v1h-1z M8,13h1v5h-1z M16,13h1v3h-1z M18,13h1v1h-1z M22,13h1v5h-1z M24,13h1v2h-1z M26,13h1v1h-1z M29,13h1v2h-1z M32,13h1v1h-1z M5,14h1v5h-1z M7,14h1v2h-1z M9,14h2v1h-2z M14,14h2v1h-2z M20,14h1v2h-1z M23,14h1v1h-1z M30,14h2v2h-2z M11,15h3v1h-3z M15,15h1v1h-1z M17,15h1v2h-1z M19,15h1v2h-1z M27,15h2v1h-2z M6,16h1v1h-1z M10,16h2v1h-2z M13,16h2v2h-2z M18,16h1v2h-1z M21,16h1v1h-1z M25,16h1v5h-1z M26,16h1v1h-1z M29,16h1v1h-1z M31,16h2v1h-2z M7,17h1v5h-1z M9,17h1v1h-1z M15,17h2v3h-2z M20,17h1v6h-1z M23,17h2v1h-2z M27,17h1v1h-1z M10,18h1v1h-1z M12,18h2v1h-2z M24,18h1v4h-1z M26,18h1v1h-1z M28,18h5v1h-5z M4,19h1v1h-1z M6,19h1v4h-1z M9,19h1v1h-1z M17,19h3v1h-3z M21,19h2v1h-2z M29,19h1v1h-1z M31,19h1v2h-1z M10,20h1v1h-1z M12,20h2v1h-2z M16,20h1v1h-1z M18,20h1v1h-1z M21,20h1v1h-1z M27,20h1v3h-1z M5,21h1v1h-1z M11,21h1v4h-1z M13,21h1v1h-1z M17,21h1v2h-1z M22,21h1v3h-1z M26,21h1v4h-1z M29,21h1v1h-1z M32,21h1v3h-1z M4,22h1v1h-1z M8,22h1v3h-1z M10,22h1v1h-1z M14,22h2v2h-2z M18,22h1v1h-1z M21,22h1v2h-1z M25,22h1v1h-1z M31,22h1v2h-1z M12,23h2v3h-2z M16,23h1v1h-1z M23,23h2v1h-2z M28,23h1v9h-1z M4,24h1v1h-1z M6,24h2v1h-2z M10,24h1v1h-1z M15,24h1v1h-1z M17,24h1v2h-1z M19,24h2v1h-2z M24,24h1v9h-1z M25,24h1v1h-1z M27,24h1v1h-1z M30,24h1v2h-1z M18,25h1v4h-1z M20,25h4v1h-4z M31,25h1v3h-1z M32,25h1v1h-1z M4,26h7v1h-7z M13,26h1v1h-1z M20,26h1v3h-1z M26,26h1v1h-1z M4,27h1v6h-1z M10,27h1v6h-1z M12,27h1v1h-1z M14,27h4v1h-4z M19,27h1v1h-1z M29,27h2v1h-2z M32,27h1v1h-1z M6,28h3v3h-3z M13,28h1v2h-1z M15,28h2v1h-2z M21,28h1v5h-1z M25,28h3v2h-3z M12,29h1v1h-1z M16,29h2v2h-2z M22,29h1v1h-1z M29,29h2v2h-2z M31,29h1v1h-1z M14,30h1v3h-1z M15,30h1v1h-1z M20,30h1v2h-1z M23,30h1v2h-1z M32,30h1v1h-1z M16,31h1v2h-1z M19,31h1v1h-1z M22,31h1v1h-1z M26,31h2v2h-2z M31,31h1v2h-1z M5,32h5v1h-5z M12,32h1v1h-1z M17,32h1v1h-1z M29,32h1v1h-1z" fill="#000000"/>
</svg>

