<?xml version="1.0" encoding="UTF-8"?>
<!DOCTYPE svg PUBLIC "-//W3C//DTD SVG 1.1//EN" "http://www.w3.org/Graphics/SVG/1.1/DTD/svg11.dtd">
<svg xmlns="http://www.w3.org/2000/svg" version="1.1" viewBox="0 0 41 41" stroke="none">
	<rect width="100%" height="100%" fill="#ffffff"/>
	<path d="M4,4h7v1h-7z M16,4h1v1h-1z M20,4h1v3h-1z M23,4h3v1h-3z M27,4h1v1h-1z M30,4h7v1h-7z M4,5h1v6h-1z M10,5h1v6h-1z M13,5h3v1h-3z M17,5h1v1h-1z M19,5h1v3h-1z M22,5h1v1h-1z M24,5h2v2h-2z M30,5h1v6h-1z M36,5h1v6h-1z M6,6h3v3h-3z M12,6h1v6h-1z M18,6h1v2h-1z M26,6h1v5h-1z M32,6h3v3h-3z M14,7h2v1h-2z M17,7h1v1h-1z M21,7h1v1h-1z M28,7h1v1h-1z M13,8h1v1h-1z M15,8h2v2h-2z M20,8h1v1h-1z M22,8h4v1h-4z M27,8h1v1h-1z M14,9h1v2h-1z M18,9h2v1h-2z M21,9h2v1h-2z M24,9h2v1h-2z M28,9h1v2h-1z M5,10h5v1h-5z M16,10h1v1h-1z M18,10h1v1h-1z M20,10h1v4h-1z M22,10h1v2h-1z M24,10h1v1h-1z M31,10h5v1h-5z M15,11h1v2h-1z M25,11h1v1h-1z M4,12h1v3h-1z M6,12h5v1h-5z M14,12h1v1h-1z M17,12h2v1h-2z M21,12h1v2h-1z M23,12h1v2h-1z M26,12h1v3h-1z M28,12h1v1h-1z M30,12h5v1h-5z M5,13h1v1h-1z M7,13h1v1h-1z M9,13h1v1h-1z M11,13h3v1h-3z M22,13h1v1h-1z M24,13h2v1h-2z M27,13h1v1h-1z M30,13h2v1h-2z M33,13h4v1h-4z M10,14h2v1h-2z M14,14h3v1h-3z M18,14h2v2h-2z M25,14h1v2h-1z M28,14h1v1h-1z M30,14h1v1h-1z M32,14h1v3h-1z M34,14h1v2h-1z M6,15h4v1h-4z M11,15h1v1h-1z M15,15h1v3h-1z M20,15h1v1h-1z M22,15h1v4h-1z M23,15h2v1h-2z M27,15h1v3h-1z M33,15h1v5h-1z M5,16h2v3h-2z M9,16h1v3h-1z M10,16h1v1h-1z M19,16h1v1h-1z M21,16h1v2h-1z M26,16h1v1h-1z M28,16h1v1h-1z M35,16h1v3h-1z M4,17h1v5h-1z M8,17h1v1h-1z M13,17h2v1h-2z M16,17h2v3h-2z M20,17h1v6h-1z M23,17h3v1h-3z M29,17h2v3h-2z M31,17h1v1h-1z M36,17h1v1h-1z M7,18h1v3h-1z M10,18h1v1h-1z M14,18h1v3h-1z M18,18h2v1h-2z M24,18h3v1h-3z M28,18h1v1h-1z M34,18h1v6h-1z M12,19h1v2h-1z M19,19h1v2h-1z M23,19h1v1h-1z M25,19h3v1h-3z M31,19h1v5h-1z M5,20h1v4h-1z M10,20h2v1h-2z M15,20h1v1h-1z M17,20h1v4h-1z M21,20h1v1h-1z M24,20h1v4h-1z M28,20h2v1h-2z M32,20h1v1h-1z M36,20h1v2h-1z M6,21h1v1h-1z M8,21h1v1h-1z M11,21h1v4h-1z M22,21h1v3h-1z M23,21h1v1h-1z M25,21h1v3h-1z M27,21h2v1h-2z M30,21h1v1h-1z M33,21h1v1h-1z M35,21h1v2h-1z M10,22h1v1h-1z M13,22h2v1h-2z M19,22h1v1h-1z M32,22h1v3h-1z M4,23h1v1h-1z M6,23h1v2h-1z M8,23h2v1h-2z M12,23h1v1h-1z M14,23h2v1h-2z M23,23h1v3h-1z M26,23h1v1h-1z M30,23h1v1h-1z M33,23h1v3h-1z M36,23h1v3h-1z M8,24h1v1h-1z M10,24h1v1h-1z M16,24h1v1h-1z M18,24h2v1h-2z M21,24h1v1h-1z M28,24h1v9h-1z M35,24h1v1h-1z M4,25h1v4h-1z M5,25h1v1h-1z M7,25h1v1h-1z M17,25h1v2h-1z M20,25h1v2h-1z M24,25h1v3h-1z M26,25h2v1h-2z M29,25h2v2h-2z M31,25h1v1h-1z M6,26h1v1h-1z M8,26h5v1h-5z M15,26h1v1h-1z M18,26h2v2h-2z M21,26h1v1h-1z M26,26h1v1h-1z M35,26h1v1h-1z M8,27h1v1h-1z M11,27h1v1h-1z M13,27h2v1h-2z M22,27h2v1h-2z M25,27h1v1h-1z M27,27h1v1h-1z M30,27h1v2h-1z M33,27h2v1h-2z M36,27h1v3h-1z M9,28h2v1h-2z M13,28h1v1h-1z M17,28h2v1h-2z M20,28h1v4h-1z M21,28h1v1h-1z M23,28h1v2h-1z M26,28h1v1h-1z M29,28h1v1h-1z M31,28h2v1h-2z M34,28h1v4h-1z M35,28h1v1h-1z M12,29h1v1h-1z M14,29h1v2h-1z M16,29h1v3h-1z M27,29h1v3h-1z M32,29h1v5h-1z M4,30h7v1h-7z M13,30h1v1h-1z M15,30h1v1h-1z M18,30h2v1h-2z M21,30h2v1h-2z M24,30h3v2h-3z M30,30h1v1h-1z M35,30h1v4h-1z M4,31h1v6h-1z M10,31h1v6h-1z M12,31h1v4h-1z M18,31h1v1h-1z M23,31h1v1h-1z M33,31h1v6h-1z M6,32h3v3h-3z M17,32h1v3h-1z M21,32h1v2h-1z M25,32h2v1h-2z M29,32h3v1h-3z M13,33h2v1h-2z M16,33h1v2h-1z M20,33h1v2h-1z M22,33h3v1h-3z M26,33h2v2h-2z M29,33h1v1h-1z M36,33h1v1h-1z M13,34h1v1h-1z M15,34h1v1h-1z M19,34h1v1h-1z M22,34h1v1h-1z M24,34h1v1h-1z M30,34h2v1h-2z M14,35h1v2h-1z M18,35h1v1h-1z M23,35h1v1h-1z M25,35h1v1h-1z M27,35h1v1h-1z M29,35h1v2h-1z M32,35h1v1h-1z M34,35h1v2h-1z M5,36h5v1h-5z M12,36h1v1h-1z M15,36h2v1h-2z M19,36h4v1h-4z M26,36h1v1h-1z M28,36h1v1h-1z M31,36h1v1h-1z M35,36h1v1h-1z" fill="#000000"/>
</svg>

